HIERARCHY
ROOT Hips
{
	OFFSET 0.000000 0.000000 0.000000
	CHANNELS 6 Xposition Yposition Zposition Yrotation Xrotation Zrotation
	JOINT Chest
	{
		OFFSET 0.000000 -0.009281 11.569106
		CHANNELS 3 Yrotation Xrotation Zrotation
		JOINT Chest2
		{
			OFFSET -0.000000 0.016865 9.269641
			CHANNELS 3 Yrotation Xrotation Zrotation
			JOINT Chest3
			{
				OFFSET -0.000000 0.000001 8.374491
				CHANNELS 3 Yrotation Xrotation Zrotation
				JOINT Chest4
				{
					OFFSET -0.000000 0.000001 8.374493
					CHANNELS 3 Yrotation Xrotation Zrotation
					JOINT Neck
					{
						OFFSET -0.000000 0.000002 12.152554
						CHANNELS 3 Yrotation Xrotation Zrotation
						JOINT Head
						{
							OFFSET -0.000000 0.040101 7.802319
							CHANNELS 3 Yrotation Xrotation Zrotation
							End Site
							{
								OFFSET -0.000000 0.020947 14.853096
							}
						}
					}
					JOINT RightCollar
					{
						OFFSET 2.894404 0.000001 6.791374
						CHANNELS 3 Yrotation Xrotation Zrotation
						JOINT RightShoulder
						{
							OFFSET 13.574684 0.000001 0.000000
							CHANNELS 3 Yrotation Xrotation Zrotation
							JOINT RightElbow
							{
								OFFSET 23.923903 0.000002 0.000000
								CHANNELS 3 Yrotation Xrotation Zrotation
								JOINT RightWrist
								{
									OFFSET 19.846718 0.012767 0.000000
									CHANNELS 3 Yrotation Xrotation Zrotation
									End Site
									{
										OFFSET 14.973145 0.000001 0.000000
									}
								}
							}
						}
					}
					JOINT LeftCollar
					{
						OFFSET -2.894404 0.000001 6.791374
						CHANNELS 3 Yrotation Xrotation Zrotation
						JOINT LeftShoulder
						{
							OFFSET -13.574684 -0.000001 0.000000
							CHANNELS 3 Yrotation Xrotation Zrotation
							JOINT LeftElbow
							{
								OFFSET -23.923903 -0.000002 0.000000
								CHANNELS 3 Yrotation Xrotation Zrotation
								JOINT LeftWrist
								{
									OFFSET -19.846718 0.012763 0.000000
									CHANNELS 3 Yrotation Xrotation Zrotation
									End Site
									{
										OFFSET -14.973145 -0.000001 0.000000
									}
								}
							}
						}
					}
				}
			}
		}
	}
	JOINT RightHip
	{
		OFFSET 9.469263 0.004643 0.045487
		CHANNELS 3 Yrotation Xrotation Zrotation
		JOINT RightKnee
		{
			OFFSET 0.000000 0.002661 -40.478676
			CHANNELS 3 Yrotation Xrotation Zrotation
			JOINT RightAnkle
			{
				OFFSET 0.000000 0.049106 -35.224068
				CHANNELS 3 Yrotation Xrotation Zrotation
				JOINT RightToe
				{
					OFFSET -0.000001 12.539529 -6.151390
					CHANNELS 3 Yrotation Xrotation Zrotation
					End Site
					{
						OFFSET -0.000001 5.044994 -1.291870
					}
				}
			}
		}
	}
	JOINT LeftHip
	{
		OFFSET -9.469263 0.004641 0.045487
		CHANNELS 3 Yrotation Xrotation Zrotation
		JOINT LeftKnee
		{
			OFFSET 0.000000 0.002661 -40.478676
			CHANNELS 3 Yrotation Xrotation Zrotation
			JOINT LeftAnkle
			{
				OFFSET 0.000000 0.049106 -35.224068
				CHANNELS 3 Yrotation Xrotation Zrotation
				JOINT LeftToe
				{
					OFFSET -0.000001 12.539529 -6.151390
					CHANNELS 3 Yrotation Xrotation Zrotation
					End Site
					{
						OFFSET -0.000001 5.044994 -1.291870
					}
				}
			}
		}
	}
}
MOTION
Frames: 14
Frame Time: 0.016667
36.670681 28.854748 83.300873 -3.217456 -0.612251 -117.290891 -1.771078 -3.818161 2.748358 -0.931157 -1.769119 1.289960 -0.931157 -1.769120 1.289959 -0.694581 -1.328815 0.964696 1.598782 -12.768815 -5.102307 0.925047 12.414311 -9.038932 9.225609 3.937338 -1.746456 42.752370 -15.042704 -12.772500 -24.278013 -61.968790 84.292478 -41.825193 38.647543 51.234489 -8.076851 5.093730 -6.897881 -40.313501 -8.872077 20.727090 -0.547393 -64.174285 -62.561459 28.152604 12.567244 -74.202519 -4.791025 6.038752 -2.918276 1.152845 -25.169652 -6.324002 0.785040 10.454792 -5.034109 -1.027147 1.032636 -0.067435 3.565625 -0.953455 7.256694 -0.182675 -6.905130 6.652040 0.826639 0.353544 12.691482 -0.242556 -0.606152 -0.243307 
35.909286 28.910507 83.225822 -3.111120 -0.535341 -117.442316 -1.773952 -3.862547 2.797981 -0.905708 -1.782400 1.300102 -0.905708 -1.782399 1.300100 -0.675438 -1.338737 0.972359 1.508676 -12.652255 -5.085101 0.753453 12.625515 -9.048782 9.239853 3.804951 -1.704807 42.773708 -14.888670 -12.868261 -23.692374 -61.946005 83.807849 -41.895602 38.739402 51.202578 -8.005500 5.043052 -6.824352 -40.267397 -8.710765 20.485013 -0.106907 -64.196299 -63.014731 28.175333 12.237209 -74.031184 -4.362232 6.225606 0.380236 -0.971342 -25.193394 -1.999116 1.891463 10.184850 -4.236795 -0.682632 1.067284 -0.070036 3.898222 -0.418027 6.659203 -0.023718 -6.887551 5.714495 -0.010641 0.300946 11.878944 0.164679 -0.583058 -0.265174 
35.309078 29.324846 83.147621 -3.053574 -0.415043 -117.439529 -1.802153 -3.889398 2.746470 -0.872541 -1.781866 1.273823 -0.872541 -1.781867 1.273825 -0.650640 -1.338228 0.952749 1.422176 -12.565586 -5.032234 0.605263 12.783057 -8.988199 9.249785 3.777378 -1.693926 42.858484 -14.731641 -13.104958 -23.491877 -61.751529 83.598128 -41.837805 38.741222 51.247364 -7.911644 4.848176 -6.799433 -40.298953 -8.694901 20.248856 -0.159318 -64.089065 -63.065240 28.316936 11.956837 -73.937611 -4.114051 6.137214 4.653646 -2.536293 -24.552382 1.178046 3.112850 9.911732 -3.079489 -0.509359 0.931917 -0.076239 4.127609 -0.049793 5.418447 0.297470 -6.538938 4.309992 -1.474194 0.077087 10.873860 0.819717 -0.432087 -0.361966 
34.869606 30.157146 83.082100 -2.903302 -0.374732 -117.458572 -1.717607 -3.779819 2.731101 -0.834722 -1.761398 1.224774 -0.834722 -1.761399 1.224770 -0.622464 -1.322730 0.916098 1.347588 -12.550641 -4.947751 0.497520 12.809780 -8.859233 9.225164 3.891750 -1.807679 43.000682 -14.576775 -13.390365 -23.939453 -61.558678 83.902665 -41.672408 38.698479 51.386044 -7.937558 4.733104 -6.869178 -40.267250 -8.837707 20.266809 -0.331417 -64.005942 -63.021766 28.507803 11.830083 -73.854296 -3.923960 5.908330 9.494328 -3.633570 -23.315967 3.363258 4.480324 9.811215 -1.659194 -0.499392 0.464587 -0.103031 4.176740 0.450965 3.344735 0.812515 -6.222210 2.295972 -3.201190 -0.074489 10.484856 1.528347 -0.251584 -0.479014 
34.530464 30.985090 82.997925 -2.684628 -0.518110 -117.372266 -1.448429 -3.680817 2.626505 -0.793431 -1.711619 1.163323 -0.793430 -1.711618 1.163323 -0.591772 -1.285231 0.870207 1.284216 -12.585421 -4.853130 0.418546 12.745496 -8.703998 9.208449 4.023918 -1.862680 43.103217 -14.265165 -13.687551 -24.992168 -61.432770 84.706811 -41.503634 38.693606 51.553284 -8.022810 4.684493 -6.873619 -40.173236 -9.011324 20.332006 -0.344395 -64.092391 -63.104179 28.659764 11.879835 -73.659458 -3.920215 5.635284 14.096529 -4.313908 -21.665058 4.858960 5.855811 9.409526 -0.855566 -0.392124 0.212282 0.418074 4.493904 1.091751 0.556563 1.336678 -6.252229 0.163375 -5.335345 0.011626 10.054221 2.249585 -0.013241 -0.664316 
34.274826 32.110710 82.922272 -2.489330 -0.398026 -117.363373 -1.442854 -3.503292 2.627906 -0.766680 -1.651891 1.103206 -0.766679 -1.651890 1.103209 -0.571989 -1.240307 0.825279 1.249029 -12.628148 -4.775474 0.386580 12.667490 -8.568957 9.208658 4.162749 -1.907499 43.124018 -14.031817 -13.880347 -26.013042 -61.325140 85.498430 -41.362656 38.689419 51.695458 -8.073466 4.630815 -6.854190 -40.106263 -9.098473 20.351319 -0.516007 -64.239275 -63.009492 28.708289 11.937479 -73.483109 -4.206139 5.560411 17.667526 -4.427962 -20.278297 5.821974 7.000222 9.427263 -0.809553 -0.531069 -0.093026 1.192252 4.273432 2.022245 -2.343907 1.892647 -6.449080 -1.631665 -7.183922 -0.022839 9.533368 2.662445 0.299175 -1.485117 
34.267262 33.379478 82.902245 -3.257264 0.520687 -117.398425 -2.640804 -3.837293 2.681014 -0.752696 -1.608724 1.069470 -0.752696 -1.608724 1.069470 -0.561671 -1.207866 0.800068 1.248668 -12.636392 -4.728824 0.405748 12.654198 -8.479970 9.245601 4.445666 -1.963811 43.073891 -14.134992 -14.008194 -26.546712 -61.285648 85.910645 -41.283402 38.662679 51.774538 -8.111577 4.691970 -6.877484 -40.105812 -9.206105 20.416468 -0.887773 -64.286287 -62.709524 28.708958 11.892561 -73.427587 -6.532883 5.275391 19.064448 -3.057107 -19.090804 5.872762 7.980571 10.067395 0.777389 -1.153033 -0.945858 0.703100 2.765183 2.095775 -5.286347 2.387397 -6.439239 -2.871594 -8.761836 -0.572501 8.832960 2.698380 1.124833 -2.874853 
34.015820 33.991539 82.926910 -3.502510 1.307130 -117.166103 -3.489124 -3.744193 2.396623 -0.751421 -1.618234 1.072977 -0.751421 -1.618234 1.072979 -0.560689 -1.215000 0.802691 1.274143 -12.609611 -4.710209 0.460234 12.706221 -8.435099 9.324645 4.669398 -1.897064 42.920618 -14.355937 -14.016661 -26.535773 -61.426569 85.939066 -41.368618 38.768219 51.735111 -8.177275 4.887369 -6.861692 -40.143703 -9.372445 20.472975 -0.918121 -64.208894 -62.672764 28.625654 11.805574 -73.356908 -8.426970 5.831360 17.103690 -2.350091 -18.977874 3.780509 8.519361 9.890594 4.974618 -0.805295 -0.972636 1.095103 2.083381 2.411683 -8.053828 2.860793 -6.462719 -3.945461 -10.747082 -0.881993 7.467794 2.638767 1.786531 -4.168993 
33.914082 34.402878 82.954956 -2.455488 -0.133310 -115.904922 -1.719063 -3.567554 1.066319 -0.783519 -1.664604 1.122189 -0.783519 -1.664604 1.122190 -0.584543 -1.249900 0.839453 1.339986 -12.509372 -4.728945 0.571489 12.895315 -8.447599 9.307392 4.596067 -1.923202 42.823292 -14.579223 -13.734360 -26.170466 -61.597808 85.702652 -41.603843 38.904276 51.586920 -8.077763 4.834650 -6.889803 -40.212629 -9.235579 20.295776 -0.655930 -64.045584 -62.941832 28.432862 11.690624 -73.299541 -4.896263 5.515119 12.314834 -4.553515 -18.925621 1.919931 5.244661 9.132515 3.628938 2.558138 -0.191433 7.521994 3.797115 2.686836 -10.806671 3.421431 -6.290407 -5.342969 -11.747983 0.485189 6.498157 1.934249 0.553021 -6.172666 
34.144604 34.683918 82.872635 -2.363598 0.034329 -115.522364 -1.884953 -3.531936 0.609806 -0.838053 -1.710600 1.198943 -0.838053 -1.710600 1.198942 -0.625138 -1.284602 0.896797 1.417339 -12.379307 -4.771562 0.692941 13.139406 -8.501901 9.230525 4.250072 -1.988667 42.856548 -14.736692 -13.322831 -25.203965 -61.713805 84.897353 -41.802506 38.873957 51.418166 -8.016152 4.919285 -6.942699 -40.213172 -9.170658 20.167488 -0.375650 -63.805257 -63.237102 28.322435 11.447918 -73.492904 -4.970782 4.814663 8.582234 -5.676795 -17.409030 4.392396 4.607190 8.911209 2.269611 3.517935 -0.133446 9.585236 3.891442 2.550311 -11.784440 3.726579 -5.771143 -6.919918 -12.178983 0.371866 4.766082 0.866725 0.486913 -6.831152 
34.288116 34.659851 82.854828 -2.537549 0.543825 -116.527972 -2.567478 -3.507070 1.573818 -0.886595 -1.741023 1.264832 -0.886595 -1.741024 1.264833 -0.661294 -1.307612 0.946028 1.467692 -12.281091 -4.807839 0.767616 13.323075 -8.554049 9.262888 3.853708 -1.805592 42.898902 -14.678898 -13.150020 -24.168413 -61.772484 84.018724 -41.934206 38.789788 51.262851 -7.982050 5.081536 -6.864632 -40.154754 -9.170574 20.034178 0.267251 -63.697347 -63.811035 28.241531 11.299373 -73.751543 -6.418733 5.036675 8.420487 -4.740645 -17.057337 7.909975 6.043179 9.479255 2.450247 1.901285 -0.170188 6.850331 3.483643 2.427381 -11.073092 3.681523 -5.554615 -7.616522 -11.895918 -0.800878 1.866906 -0.065428 1.301753 -5.281288 
33.994080 33.543358 82.802307 -3.237397 1.191265 -117.490920 -3.596710 -3.807382 2.567759 -0.915617 -1.753206 1.293910 -0.915617 -1.753206 1.293909 -0.682950 -1.316854 0.967733 1.477147 -12.231396 -4.825247 0.775242 13.415087 -8.585409 9.327001 3.849986 -1.762679 42.916664 -14.794272 -13.222255 -23.582884 -61.849385 83.618850 -42.061790 38.743674 51.115773 -7.951813 5.086354 -6.852847 -40.053162 -8.994916 19.948491 1.039273 -63.758921 -64.472860 28.086055 11.302454 -73.884888 -8.224064 4.715073 9.854032 -3.395792 -16.193544 8.195061 9.339169 10.013056 6.864060 -1.014288 -0.923895 1.522359 2.091230 2.319815 -10.004958 3.569422 -5.838829 -7.069360 -10.903351 -2.077056 -2.457858 -0.473407 1.981576 -2.248900 
33.197990 31.925064 82.791420 -2.622388 0.131236 -117.245374 -2.402684 -3.726927 2.412171 -0.913210 -1.758938 1.279826 -0.913210 -1.758938 1.279827 -0.681173 -1.321125 0.957168 1.445027 -12.224216 -4.816052 0.717425 13.426861 -8.581784 9.411404 4.087352 -1.736672 42.864659 -14.792417 -13.474734 -23.446361 -61.973687 83.670507 -42.045354 38.697372 51.062959 -7.935068 5.093942 -6.849621 -39.995569 -8.951275 19.971323 1.347362 -63.843575 -64.701433 27.926437 11.324874 -73.948423 -5.472487 5.031371 10.470048 -2.848376 -17.275227 4.763464 8.505339 10.748775 7.457965 -0.948285 -1.094711 2.184598 3.394220 2.651040 -9.037297 3.404233 -6.170956 -6.552439 -9.395269 -1.590199 -4.584151 -1.553885 1.223557 -1.321330 
32.488281 30.634768 82.808167 -2.634147 0.370871 -117.121502 -2.653048 -3.569031 2.439547 -0.872119 -1.756967 1.231437 -0.872119 -1.756968 1.231435 -0.650500 -1.319492 0.921001 1.383863 -12.247416 -4.790636 0.612957 13.381199 -8.558180 9.458916 4.226822 -1.690166 42.815475 -14.531945 -13.698654 -23.666281 -62.036470 83.980973 -41.885425 38.606142 51.147312 -7.921795 5.027716 -6.861514 -39.976394 -9.042026 20.050478 1.138670 -63.892827 -64.502285 27.992367 11.312619 -73.909675 -5.333776 5.291896 10.936640 -1.613085 -17.624991 0.731491 8.533660 11.775695 9.377904 -1.090369 -1.934173 0.940404 3.460396 2.797015 -6.504112 3.440145 -6.152192 -7.453649 -7.715796 -1.746212 -5.515177 -2.710618 1.258937 -1.281263 
